<?xml version="1.0" encoding="utf-8"?>
<!-- Generator: Adobe Illustrator 25.0.0, SVG Export Plug-In . SVG Version: 6.00 Build 0)  -->
<svg version="1.1" id="Layer_1" xmlns="http://www.w3.org/2000/svg" xmlns:xlink="http://www.w3.org/1999/xlink" x="0px" y="0px"
	 viewBox="0 0 288 216" style="enable-background:new 0 0 288 216;" xml:space="preserve">
<style type="text/css">
	.st0{fill:#FFFFFF;}
	.st1{opacity:0.33;fill:#FFFFFF;}
	.st2{opacity:0.67;fill:#FFFFFF;}
</style>
<g>
	<path class="st0" d="M82.77,110.22l-6.99,7.88v24.31h-11.1V68.37h11.1v36.74l30.97-36.74h13.76l-30.52,35.07l32.96,38.96h-13.76
		L82.77,110.22z M132.05,123.43c5,5.55,12.99,10.43,23.31,10.43c11.99,0,16.21-6.1,16.21-11.43c0-7.77-8.44-9.99-17.87-12.43
		c-11.88-3.11-25.64-6.55-25.64-21.64c0-12.21,10.77-21.09,26.19-21.09c11.43,0,20.42,3.66,26.97,10.32l-6.44,8.21
		c-5.66-5.99-13.43-8.66-21.42-8.66c-8.21,0-13.87,4.22-13.87,10.43c0,6.66,7.99,8.77,17.2,11.1c12.1,3.22,26.19,6.99,26.19,22.75
		c0,11.54-7.99,22.31-27.97,22.31c-13.21,0-22.86-4.77-29.19-11.77L132.05,123.43z M261.7,83.58l-23.97,58.83h-4.66l-23.97-58.83
		v58.83h-11.1V68.37h15.87l21.53,53.17l21.53-53.17h15.87v74.03h-11.1V83.58z"/>
	<g>
		<polygon class="st1" points="101.66,171.15 101.66,197.07 145.93,152.81 		"/>
		<polygon class="st2" points="100.41,171.15 56.15,152.81 100.41,197.07 		"/>
		<polygon class="st0" points="101.04,170.05 145.45,151.65 56.62,151.65 		"/>
	</g>
	<g>
		<polygon class="st1" points="35.5,106.24 9.57,106.24 53.84,150.5 		"/>
		<polygon class="st0" points="54.99,150.02 54.99,61.2 40.07,97.22 36.6,105.61 		"/>
		<polygon class="st2" points="9.57,104.99 35.5,104.99 53.84,60.72 		"/>
	</g>
	<g>
		<polygon class="st0" points="56.62,59.57 145.45,59.57 101.04,41.17 		"/>
		<polygon class="st1" points="100.41,40.07 100.41,14.15 56.15,58.41 		"/>
		<polygon class="st2" points="101.66,40.07 145.93,58.41 101.66,14.15 		"/>
	</g>
	<path class="st0" d="M161.31,153.76h-4.86v-2.07h12.05v2.07h-4.84v13.61h-2.35V153.76z M173.06,155.74c3.41,0,5.52,2.66,5.52,6.13
		v0.52h-8.98c0.16,1.93,1.57,3.52,3.85,3.52c1.2,0,2.51-0.47,3.36-1.34l0.99,1.39c-1.13,1.1-2.73,1.69-4.56,1.69
		c-3.38,0-5.87-2.4-5.87-5.97C167.37,158.39,169.75,155.74,173.06,155.74z M169.58,160.86h6.93c-0.05-1.5-1.06-3.38-3.45-3.38
		C170.78,157.48,169.7,159.31,169.58,160.86z M186.08,155.74c2.14,0,3.43,0.89,4.25,2l-1.41,1.29c-0.68-0.96-1.6-1.41-2.75-1.41
		c-2.23,0-3.67,1.72-3.67,4.07s1.43,4.09,3.67,4.09c1.15,0,2.07-0.47,2.75-1.41l1.41,1.29c-0.82,1.1-2.11,2-4.25,2
		c-3.43,0-5.78-2.56-5.78-5.97S182.65,155.74,186.08,155.74z M200.08,160.06c0-1.88-0.96-2.44-2.42-2.44c-1.32,0-2.51,0.8-3.12,1.64
		v8.11h-2.11v-15.67h2.11v5.92c0.75-0.92,2.28-1.88,4.02-1.88c2.42,0,3.64,1.22,3.64,3.62v8.01h-2.12V160.06z M213.01,160.11
		c0-1.88-0.96-2.49-2.42-2.49c-1.32,0-2.51,0.8-3.12,1.64v8.11h-2.12v-11.35h2.12v1.6c0.75-0.92,2.26-1.88,4.02-1.88
		c2.4,0,3.64,1.27,3.64,3.67v7.97h-2.11V160.11z M217.54,161.68c0-3.27,2.21-5.95,5.73-5.95c3.55,0,5.73,2.68,5.73,5.95
		c0,3.29-2.19,5.97-5.73,5.97C219.75,167.65,217.54,164.97,217.54,161.68z M226.8,161.68c0-2.14-1.25-4.07-3.52-4.07
		c-2.26,0-3.52,1.93-3.52,4.07c0,2.16,1.27,4.09,3.52,4.09C225.56,165.77,226.8,163.84,226.8,161.68z M231.46,151.69h2.11v15.67
		h-2.11V151.69z M235.99,161.68c0-3.27,2.21-5.95,5.73-5.95c3.55,0,5.73,2.68,5.73,5.95c0,3.29-2.19,5.97-5.73,5.97
		C238.2,167.65,235.99,164.97,235.99,161.68z M245.25,161.68c0-2.14-1.25-4.07-3.52-4.07c-2.26,0-3.52,1.93-3.52,4.07
		c0,2.16,1.27,4.09,3.52,4.09C244,165.77,245.25,163.84,245.25,161.68z M250.82,168.73c0.94,1.08,2.09,1.5,3.64,1.5
		c1.76,0,3.52-0.85,3.52-3.24v-1.48c-0.87,1.13-2.21,1.95-3.74,1.95c-2.94,0-5.05-2.16-5.05-5.87c0-3.64,2.11-5.85,5.05-5.85
		c1.48,0,2.82,0.71,3.74,1.93v-1.64h2.12v10.9c0,3.9-2.84,5.05-5.64,5.05c-1.9,0-3.29-0.4-4.65-1.69L250.82,168.73z M257.99,159.28
		c-0.59-0.92-1.88-1.67-3.15-1.67c-2.12,0-3.43,1.64-3.43,3.97c0,2.35,1.32,3.99,3.43,3.99c1.27,0,2.56-0.78,3.15-1.69V159.28z
		 M263.93,170.09c0.78,0,1.29-0.26,1.65-1.1l0.66-1.5l-4.68-11.47h2.26l3.55,8.91l3.55-8.91h2.28l-5.59,13.51
		c-0.73,1.79-1.97,2.42-3.62,2.44c-0.35,0-0.99-0.07-1.32-0.16l0.33-1.9C263.25,170.02,263.65,170.09,263.93,170.09z"/>
	<path class="st0" d="M161.31,171.94h6.6c3.22,0,5.01,2.21,5.01,4.82s-1.81,4.82-5.01,4.82h-4.25v6.04h-2.35V171.94z M167.61,174.01
		h-3.95v5.5h3.95c1.69,0,2.89-1.1,2.89-2.75C170.5,175.12,169.3,174.01,167.61,174.01z M181.59,186.37
		c-0.89,0.99-2.19,1.53-3.71,1.53c-1.88,0-3.95-1.27-3.95-3.76c0-2.58,2.04-3.71,3.95-3.71c1.53,0,2.84,0.49,3.71,1.5v-1.88
		c0-1.41-1.15-2.26-2.77-2.26c-1.29,0-2.4,0.49-3.41,1.5l-0.92-1.46c1.27-1.25,2.82-1.86,4.65-1.86c2.47,0,4.56,1.08,4.56,3.97v7.66
		h-2.12V186.37z M181.59,183.2c-0.63-0.85-1.74-1.29-2.91-1.29c-1.53,0-2.61,0.92-2.61,2.26c0,1.34,1.08,2.26,2.61,2.26
		c1.17,0,2.28-0.45,2.91-1.29V183.2z M186.35,176.27h2.12v1.74c0.87-1.13,2.21-2,3.71-2v2.14c-0.21-0.05-0.45-0.07-0.73-0.07
		c-1.06,0-2.49,0.8-2.98,1.64v7.9h-2.12V176.27z M195.28,185.1v-6.98h-1.88v-1.86h1.88v-3.1h2.11v3.1h2.3v1.86h-2.3v6.51
		c0,0.8,0.38,1.39,1.1,1.39c0.49,0,0.94-0.21,1.15-0.45l0.54,1.6c-0.45,0.42-1.1,0.73-2.21,0.73
		C196.2,187.9,195.28,186.89,195.28,185.1z M209.68,180.36c0-1.88-0.96-2.49-2.42-2.49c-1.32,0-2.51,0.8-3.12,1.64v8.11h-2.11
		v-11.35h2.11v1.6c0.75-0.92,2.26-1.88,4.02-1.88c2.4,0,3.64,1.27,3.64,3.67v7.97h-2.12V180.36z M219.6,175.99
		c3.41,0,5.52,2.66,5.52,6.13v0.52h-8.98c0.16,1.93,1.57,3.52,3.85,3.52c1.2,0,2.51-0.47,3.36-1.34l0.99,1.39
		c-1.13,1.1-2.73,1.69-4.56,1.69c-3.38,0-5.87-2.4-5.87-5.97C213.91,178.64,216.29,175.99,219.6,175.99z M216.12,181.11h6.93
		c-0.05-1.5-1.06-3.38-3.45-3.38C217.32,177.73,216.24,179.56,216.12,181.11z M227.24,176.27h2.11v1.74c0.87-1.13,2.21-2,3.71-2
		v2.14c-0.21-0.05-0.45-0.07-0.73-0.07c-1.06,0-2.49,0.8-2.98,1.64v7.9h-2.11V176.27z M234.97,184.59c0.78,0.85,2.28,1.62,3.81,1.62
		c1.6,0,2.44-0.66,2.44-1.62c0-1.13-1.29-1.5-2.75-1.83c-1.93-0.45-4.18-0.96-4.18-3.41c0-1.81,1.55-3.36,4.32-3.36
		c1.95,0,3.36,0.71,4.32,1.62l-0.94,1.48c-0.66-0.8-1.93-1.39-3.36-1.39s-2.33,0.56-2.33,1.48c0,0.99,1.22,1.32,2.63,1.64
		c1.97,0.45,4.32,0.99,4.32,3.6c0,1.95-1.6,3.48-4.58,3.48c-1.9,0-3.57-0.59-4.72-1.76L234.97,184.59z"/>
</g>
</svg>
